<svg width="15" height="17" viewBox="0 0 15 17" xmlns="http://www.w3.org/2000/svg"><path d="M.82 7.455c-.104.854.42 1.244.42 1.604 0 .59-.555 1.278-.387 1.978.107.447 1.006.852 1.316 1.042.332.205.397.75.412 1.146.03.75.807.685 1.234 1.464.167.306.22.804.78 1.15.412.254 1.75.188 3.273.093 2.747-.172 5.29-1.763 7.13-1.763V8.005h-3.367c-.284 0-.446-.348-.745-1.027-.47-1.065-1.212-1.537-1.643-2.1-.43-.564-.797-1.21-.976-1.692A12.16 12.16 0 0 1 7.59.582c-.14-.92-1.433-.71-1.84.35-.347.907-.302 1.916-.046 2.947.27 1.09.465 1.316.353 2.138-1.118 0-1.674.02-3.185.02" fill="#fff" fill-rule="evenodd"/></svg>