<?xml version="1.0" encoding="UTF-8" standalone="no"?>
<svg width="24px" height="24px" viewBox="0 0 24 24" version="1.1" xmlns="http://www.w3.org/2000/svg" xmlns:xlink="http://www.w3.org/1999/xlink">
    <!-- Generator: Sketch 3.6.1 (26313) - http://www.bohemiancoding.com/sketch -->
    <title>Artboard 55 Copy 2</title>
    <desc>Created with Sketch.</desc>
    <defs></defs>
    <g id="Page-1" stroke="none" stroke-width="1" fill="none" fill-rule="evenodd">
        <g id="Artboard-55" transform="translate(-111.000000, -216.000000)">
            <g id="Page-1" transform="translate(123.000000, 228.500000) scale(-1, 1) translate(-123.000000, -228.500000) translate(112.000000, 217.000000)" fill="#000000">
                <path d="M8.5421,6.5631 L4.4751,0.6351 C-0.0419,1.7201 0.0051,5.5691 0.0051,5.5691 C0.0051,5.5691 -0.1639,8.5621 1.4371,10.9561 C3.0391,13.3501 3.7171,14.4031 5.6851,16.3641 C7.6521,18.3251 8.6861,18.9801 11.0881,20.5761 C13.4901,22.1731 16.4831,21.9941 16.4831,21.9941 C16.4831,21.9941 20.1981,22.0001 21.4211,17.5281 L15.5561,13.5101 C15.5561,13.5101 14.1221,15.5041 13.8861,15.8851 C13.6191,16.3161 12.9701,16.7851 12.2631,16.3551 C11.5571,15.9241 10.1971,15.1101 8.5741,13.4861 C6.9501,11.8621 6.1051,10.4901 5.6741,9.7861 C5.2421,9.0821 5.7641,8.4021 6.1231,8.1461 C6.4821,7.8911 8.5421,6.5631 8.5421,6.5631" id="Fill-1"></path>
            </g>
        </g>
    </g>
</svg>