<?xml version="1.0" encoding="UTF-8" standalone="no"?>
<svg width="16px" height="16px" viewBox="0 0 16 16" version="1.1" xmlns="http://www.w3.org/2000/svg" xmlns:xlink="http://www.w3.org/1999/xlink">
    <!-- Generator: Sketch 3.6.1 (26313) - http://www.bohemiancoding.com/sketch -->
    <title>Artboard 55 Copy</title>
    <desc>Created with Sketch.</desc>
    <defs></defs>
    <g id="Page-1" stroke="none" stroke-width="1" fill="none" fill-rule="evenodd">
        <g id="Artboard-55" transform="translate(-267.000000, -260.000000)">
            <g id="Slices" transform="translate(59.000000, 66.000000)"></g>
            <g id="Page-1" transform="translate(269.000000, 260.000000)" fill="#000000">
                <g id="Group-3">
                    <path d="M11.0605,6 C11.0605,3.222 8.8085,0.97 6.0305,0.97 C3.2515,0.97 0.9995,3.222 0.9995,6 C0.9995,8.778 3.2515,11.03 6.0305,11.03 L6.0305,16 C6.0305,16 8.8555,11.112 10.1295,8.909 C10.6265,8.048 11.0605,6.853 11.0605,6 Z M7.874,6 C7.874,7.018 7.049,7.844 6.03,7.844 C5.012,7.844 4.186,7.018 4.186,6 C4.186,4.982 5.012,4.156 6.03,4.156 C7.049,4.156 7.874,4.982 7.874,6 Z" id="Fill-1"></path>
                </g>
            </g>
        </g>
    </g>
</svg>